<?xml version="1.0" encoding="UTF-8" standalone="no"?>
<!DOCTYPE svg PUBLIC "-//W3C//DTD SVG 1.1//EN"
 "http://www.w3.org/Graphics/SVG/1.1/DTD/svg11.dtd">
<!-- Generated by graphviz version 2.50.0 (20211204.2007)
 -->
<!-- Title: cluster_C:\Users\Layne Liu\PycharmProjects\cfg\py2flows\examples\08_while.py Pages: 1 -->
<svg width="274pt" height="403pt"
 viewBox="0.00 0.00 273.97 402.96" xmlns="http://www.w3.org/2000/svg" xmlns:xlink="http://www.w3.org/1999/xlink">
<g id="graph0" class="graph" transform="scale(1 1) rotate(0) translate(4 398.96)">
<title>cluster_C:\Users\Layne Liu\PycharmProjects\cfg\py2flows\examples\08_while.py</title>
<polygon fill="white" stroke="transparent" points="-4,4 -4,-398.96 269.97,-398.96 269.97,4 -4,4"/>
<!-- 1 -->
<g id="node1" class="node">
<title>1</title>
<ellipse fill="none" stroke="black" cx="174.84" cy="-368.09" rx="29.9" ry="26.74"/>
<text text-anchor="middle" x="174.84" y="-371.89" font-family="Times New Roman,serif" font-size="14.00">1</text>
<text text-anchor="middle" x="174.84" y="-356.89" font-family="Times New Roman,serif" font-size="14.00">i = 1</text>
</g>
<!-- 2 -->
<g id="node2" class="node">
<title>2</title>
<ellipse fill="none" stroke="black" cx="174.84" cy="-278.35" rx="60.62" ry="26.74"/>
<text text-anchor="middle" x="174.84" y="-282.15" font-family="Times New Roman,serif" font-size="14.00">2</text>
<text text-anchor="middle" x="174.84" y="-267.15" font-family="Times New Roman,serif" font-size="14.00">while i &lt;= n:</text>
</g>
<!-- 1&#45;&gt;2 -->
<g id="edge7" class="edge">
<title>1&#45;&gt;2</title>
<path fill="none" stroke="black" d="M174.84,-340.77C174.84,-332.8 174.84,-323.91 174.84,-315.42"/>
<polygon fill="black" stroke="black" points="178.34,-315.35 174.84,-305.35 171.34,-315.35 178.34,-315.35"/>
</g>
<!-- 4 -->
<g id="node3" class="node">
<title>4</title>
<ellipse fill="none" stroke="black" cx="43.84" cy="-188.61" rx="43.68" ry="26.74"/>
<text text-anchor="middle" x="43.84" y="-192.41" font-family="Times New Roman,serif" font-size="14.00">4</text>
<text text-anchor="middle" x="43.84" y="-177.41" font-family="Times New Roman,serif" font-size="14.00">sum = 1</text>
</g>
<!-- 2&#45;&gt;4 -->
<g id="edge3" class="edge">
<title>2&#45;&gt;4</title>
<path fill="none" stroke="black" d="M142.12,-255.44C123.72,-243.11 100.67,-227.67 81.52,-214.84"/>
<polygon fill="black" stroke="black" points="83.28,-211.81 73.02,-209.15 79.38,-217.63 83.28,-211.81"/>
</g>
<!-- 5 -->
<g id="node6" class="node">
<title>5</title>
<ellipse fill="none" stroke="black" cx="174.84" cy="-188.61" rx="69.09" ry="26.74"/>
<text text-anchor="middle" x="174.84" y="-192.41" font-family="Times New Roman,serif" font-size="14.00">5</text>
<text text-anchor="middle" x="174.84" y="-177.41" font-family="Times New Roman,serif" font-size="14.00">sum = sum + i</text>
</g>
<!-- 2&#45;&gt;5 -->
<g id="edge6" class="edge">
<title>2&#45;&gt;5</title>
<path fill="none" stroke="black" d="M174.84,-251.03C174.84,-243.06 174.84,-234.17 174.84,-225.68"/>
<polygon fill="black" stroke="black" points="178.34,-225.61 174.84,-215.61 171.34,-225.61 178.34,-225.61"/>
</g>
<!-- 8 -->
<g id="node4" class="node">
<title>8</title>
<ellipse fill="none" stroke="black" cx="43.84" cy="-98.87" rx="29.9" ry="26.74"/>
<text text-anchor="middle" x="43.84" y="-102.67" font-family="Times New Roman,serif" font-size="14.00">8</text>
<text text-anchor="middle" x="43.84" y="-87.67" font-family="Times New Roman,serif" font-size="14.00">i = 2</text>
</g>
<!-- 4&#45;&gt;8 -->
<g id="edge2" class="edge">
<title>4&#45;&gt;8</title>
<path fill="none" stroke="black" d="M43.84,-161.29C43.84,-153.32 43.84,-144.43 43.84,-135.94"/>
<polygon fill="black" stroke="black" points="47.34,-135.87 43.84,-125.87 40.34,-135.87 47.34,-135.87"/>
</g>
<!-- 9 -->
<g id="node5" class="node">
<title>9</title>
<ellipse fill="none" stroke="black" cx="43.84" cy="-18" rx="27" ry="18"/>
<text text-anchor="middle" x="43.84" y="-14.3" font-family="Times New Roman,serif" font-size="14.00">9</text>
</g>
<!-- 8&#45;&gt;9 -->
<g id="edge1" class="edge">
<title>8&#45;&gt;9</title>
<path fill="none" stroke="black" d="M43.84,-71.61C43.84,-63.51 43.84,-54.57 43.84,-46.39"/>
<polygon fill="black" stroke="black" points="47.34,-46.22 43.84,-36.22 40.34,-46.22 47.34,-46.22"/>
</g>
<!-- 6 -->
<g id="node7" class="node">
<title>6</title>
<ellipse fill="none" stroke="black" cx="222.84" cy="-98.87" rx="43.27" ry="26.74"/>
<text text-anchor="middle" x="222.84" y="-102.67" font-family="Times New Roman,serif" font-size="14.00">6</text>
<text text-anchor="middle" x="222.84" y="-87.67" font-family="Times New Roman,serif" font-size="14.00">i = i + 1</text>
</g>
<!-- 5&#45;&gt;6 -->
<g id="edge5" class="edge">
<title>5&#45;&gt;6</title>
<path fill="none" stroke="black" d="M188.72,-162.23C193.63,-153.26 199.24,-143.02 204.46,-133.47"/>
<polygon fill="black" stroke="black" points="207.59,-135.04 209.32,-124.59 201.45,-131.68 207.59,-135.04"/>
</g>
<!-- 6&#45;&gt;2 -->
<g id="edge4" class="edge">
<title>6&#45;&gt;2</title>
<path fill="none" stroke="black" d="M238.68,-124.3C252.14,-148.39 267.18,-185.79 252.84,-215.48 245.93,-229.78 233.94,-241.78 221.39,-251.3"/>
<polygon fill="black" stroke="black" points="219.24,-248.54 213.12,-257.19 223.3,-254.24 219.24,-248.54"/>
</g>
</g>
</svg>
