<?xml version="1.0" encoding="UTF-8" standalone="no"?>
<!DOCTYPE svg PUBLIC "-//W3C//DTD SVG 1.1//EN"
 "http://www.w3.org/Graphics/SVG/1.1/DTD/svg11.dtd">
<!-- Generated by graphviz version 2.48.0 (0)
 -->
<!-- Title: cluster_12_listcomp.py Pages: 1 -->
<svg width="1190pt" height="1677pt"
 viewBox="0.00 0.00 1190.24 1677.06" xmlns="http://www.w3.org/2000/svg" xmlns:xlink="http://www.w3.org/1999/xlink">
<g id="graph0" class="graph" transform="scale(1 1) rotate(0) translate(4 1673.06)">
<title>cluster_12_listcomp.py</title>
<polygon fill="white" stroke="transparent" points="-4,4 -4,-1673.06 1186.24,-1673.06 1186.24,4 -4,4"/>
<!-- 1 -->
<g id="node1" class="node">
<title>1</title>
<ellipse fill="none" stroke="black" cx="229.81" cy="-1642.19" rx="123.07" ry="26.74"/>
<text text-anchor="middle" x="229.81" y="-1645.99" font-family="Times,serif" font-size="14.00">1</text>
<text text-anchor="middle" x="229.81" y="-1630.99" font-family="Times,serif" font-size="14.00">_tmp_var_1 = [1, 2, 3]</text>
</g>
<!-- 2 -->
<g id="node2" class="node">
<title>2</title>
<ellipse fill="none" stroke="black" cx="229.81" cy="-1552.45" rx="123.07" ry="26.74"/>
<text text-anchor="middle" x="229.81" y="-1556.25" font-family="Times,serif" font-size="14.00">2</text>
<text text-anchor="middle" x="229.81" y="-1541.25" font-family="Times,serif" font-size="14.00">_tmp_var_2 = [4, 5, 6]</text>
</g>
<!-- 1&#45;&gt;2 -->
<g id="edge28" class="edge">
<title>1&#45;&gt;2</title>
<path fill="none" stroke="black" d="M229.81,-1614.87C229.81,-1606.9 229.81,-1598.01 229.81,-1589.52"/>
<polygon fill="black" stroke="black" points="233.31,-1589.46 229.81,-1579.46 226.31,-1589.46 233.31,-1589.46"/>
</g>
<!-- 3 -->
<g id="node3" class="node">
<title>3</title>
<ellipse fill="none" stroke="black" cx="229.81" cy="-1462.71" rx="160.53" ry="26.74"/>
<text text-anchor="middle" x="229.81" y="-1466.51" font-family="Times,serif" font-size="14.00">3</text>
<text text-anchor="middle" x="229.81" y="-1451.51" font-family="Times,serif" font-size="14.00">z = [_tmp_var_1, _tmp_var_2]</text>
</g>
<!-- 2&#45;&gt;3 -->
<g id="edge27" class="edge">
<title>2&#45;&gt;3</title>
<path fill="none" stroke="black" d="M229.81,-1525.13C229.81,-1517.16 229.81,-1508.27 229.81,-1499.78"/>
<polygon fill="black" stroke="black" points="233.31,-1499.72 229.81,-1489.72 226.31,-1499.72 233.31,-1499.72"/>
</g>
<!-- 4 -->
<g id="node4" class="node">
<title>4</title>
<ellipse fill="none" stroke="black" cx="229.81" cy="-1372.97" rx="91.43" ry="26.74"/>
<text text-anchor="middle" x="229.81" y="-1376.77" font-family="Times,serif" font-size="14.00">4</text>
<text text-anchor="middle" x="229.81" y="-1361.77" font-family="Times,serif" font-size="14.00">_tmp_var_3 = []</text>
</g>
<!-- 3&#45;&gt;4 -->
<g id="edge26" class="edge">
<title>3&#45;&gt;4</title>
<path fill="none" stroke="black" d="M229.81,-1435.39C229.81,-1427.42 229.81,-1418.53 229.81,-1410.04"/>
<polygon fill="black" stroke="black" points="233.31,-1409.98 229.81,-1399.98 226.31,-1409.98 233.31,-1409.98"/>
</g>
<!-- 5 -->
<g id="node5" class="node">
<title>5</title>
<ellipse fill="none" stroke="black" cx="229.81" cy="-1283.23" rx="91.43" ry="26.74"/>
<text text-anchor="middle" x="229.81" y="-1287.03" font-family="Times,serif" font-size="14.00">5</text>
<text text-anchor="middle" x="229.81" y="-1272.03" font-family="Times,serif" font-size="14.00">_tmp_var_4 = []</text>
</g>
<!-- 4&#45;&gt;5 -->
<g id="edge25" class="edge">
<title>4&#45;&gt;5</title>
<path fill="none" stroke="black" d="M229.81,-1345.65C229.81,-1337.68 229.81,-1328.79 229.81,-1320.3"/>
<polygon fill="black" stroke="black" points="233.31,-1320.24 229.81,-1310.24 226.31,-1320.24 233.31,-1320.24"/>
</g>
<!-- 6 -->
<g id="node6" class="node">
<title>6</title>
<ellipse fill="none" stroke="black" cx="229.81" cy="-1193.49" rx="59.29" ry="26.74"/>
<text text-anchor="middle" x="229.81" y="-1197.29" font-family="Times,serif" font-size="14.00">6</text>
<text text-anchor="middle" x="229.81" y="-1182.29" font-family="Times,serif" font-size="14.00">for y in z:</text>
</g>
<!-- 5&#45;&gt;6 -->
<g id="edge24" class="edge">
<title>5&#45;&gt;6</title>
<path fill="none" stroke="black" d="M229.81,-1255.91C229.81,-1247.94 229.81,-1239.05 229.81,-1230.56"/>
<polygon fill="black" stroke="black" points="233.31,-1230.5 229.81,-1220.5 226.31,-1230.5 233.31,-1230.5"/>
</g>
<!-- 7 -->
<g id="node7" class="node">
<title>7</title>
<ellipse fill="none" stroke="black" cx="229.81" cy="-1103.75" rx="229.62" ry="26.74"/>
<text text-anchor="middle" x="229.81" y="-1107.55" font-family="Times,serif" font-size="14.00">7</text>
<text text-anchor="middle" x="229.81" y="-1092.55" font-family="Times,serif" font-size="14.00">_tmp_unused_var_ = _tmp_var_4.append(y)</text>
</g>
<!-- 6&#45;&gt;7 -->
<g id="edge2" class="edge">
<title>6&#45;&gt;7</title>
<path fill="none" stroke="black" d="M223.59,-1166.64C223.09,-1158.59 222.94,-1149.56 223.15,-1140.94"/>
<polygon fill="black" stroke="black" points="226.66,-1140.86 223.59,-1130.72 219.67,-1140.56 226.66,-1140.86"/>
</g>
<!-- 8 -->
<g id="node8" class="node">
<title>8</title>
<ellipse fill="none" stroke="black" cx="589.81" cy="-1103.75" rx="111.95" ry="26.74"/>
<text text-anchor="middle" x="589.81" y="-1107.55" font-family="Times,serif" font-size="14.00">8</text>
<text text-anchor="middle" x="589.81" y="-1092.55" font-family="Times,serif" font-size="14.00">for x in _tmp_var_4:</text>
</g>
<!-- 6&#45;&gt;8 -->
<g id="edge23" class="edge">
<title>6&#45;&gt;8</title>
<path fill="none" stroke="black" d="M281.39,-1179.92C339.2,-1165.83 433.9,-1142.75 503.14,-1125.88"/>
<polygon fill="black" stroke="black" points="504.27,-1129.2 513.16,-1123.43 502.62,-1122.4 504.27,-1129.2"/>
</g>
<!-- 7&#45;&gt;6 -->
<g id="edge1" class="edge">
<title>7&#45;&gt;6</title>
<path fill="none" stroke="black" d="M236.03,-1130.72C236.53,-1138.78 236.68,-1147.81 236.46,-1156.43"/>
<polygon fill="black" stroke="black" points="232.96,-1156.5 236.03,-1166.64 239.95,-1156.8 232.96,-1156.5"/>
</g>
<!-- 10 -->
<g id="node9" class="node">
<title>10</title>
<ellipse fill="none" stroke="black" cx="589.81" cy="-1014.01" rx="229.62" ry="26.74"/>
<text text-anchor="middle" x="589.81" y="-1017.81" font-family="Times,serif" font-size="14.00">10</text>
<text text-anchor="middle" x="589.81" y="-1002.81" font-family="Times,serif" font-size="14.00">_tmp_unused_var_ = _tmp_var_3.append(x)</text>
</g>
<!-- 8&#45;&gt;10 -->
<g id="edge4" class="edge">
<title>8&#45;&gt;10</title>
<path fill="none" stroke="black" d="M583.59,-1076.9C583.09,-1068.85 582.94,-1059.82 583.15,-1051.2"/>
<polygon fill="black" stroke="black" points="586.66,-1051.12 583.59,-1040.98 579.67,-1050.82 586.66,-1051.12"/>
</g>
<!-- 11 -->
<g id="node10" class="node">
<title>11</title>
<ellipse fill="none" stroke="black" cx="927.81" cy="-1014.01" rx="89.61" ry="26.74"/>
<text text-anchor="middle" x="927.81" y="-1017.81" font-family="Times,serif" font-size="14.00">11</text>
<text text-anchor="middle" x="927.81" y="-1002.81" font-family="Times,serif" font-size="14.00">a = _tmp_var_3</text>
</g>
<!-- 8&#45;&gt;11 -->
<g id="edge22" class="edge">
<title>8&#45;&gt;11</title>
<path fill="none" stroke="black" d="M664.1,-1083.57C711.29,-1071.37 773.64,-1055.23 828.81,-1040.88 836.3,-1038.93 844.12,-1036.9 851.92,-1034.86"/>
<polygon fill="black" stroke="black" points="852.99,-1038.2 861.78,-1032.29 851.22,-1031.43 852.99,-1038.2"/>
</g>
<!-- 10&#45;&gt;8 -->
<g id="edge3" class="edge">
<title>10&#45;&gt;8</title>
<path fill="none" stroke="black" d="M596.03,-1040.98C596.53,-1049.04 596.68,-1058.07 596.46,-1066.69"/>
<polygon fill="black" stroke="black" points="592.96,-1066.76 596.03,-1076.9 599.95,-1067.06 592.96,-1066.76"/>
</g>
<!-- 13 -->
<g id="node11" class="node">
<title>13</title>
<ellipse fill="none" stroke="black" cx="927.81" cy="-924.27" rx="87.86" ry="26.74"/>
<text text-anchor="middle" x="927.81" y="-928.07" font-family="Times,serif" font-size="14.00">13</text>
<text text-anchor="middle" x="927.81" y="-913.07" font-family="Times,serif" font-size="14.00">del _tmp_var_3</text>
</g>
<!-- 11&#45;&gt;13 -->
<g id="edge21" class="edge">
<title>11&#45;&gt;13</title>
<path fill="none" stroke="black" d="M927.81,-986.69C927.81,-978.72 927.81,-969.83 927.81,-961.34"/>
<polygon fill="black" stroke="black" points="931.31,-961.28 927.81,-951.28 924.31,-961.28 931.31,-961.28"/>
</g>
<!-- 14 -->
<g id="node12" class="node">
<title>14</title>
<ellipse fill="none" stroke="black" cx="927.81" cy="-834.53" rx="91.43" ry="26.74"/>
<text text-anchor="middle" x="927.81" y="-838.33" font-family="Times,serif" font-size="14.00">14</text>
<text text-anchor="middle" x="927.81" y="-823.33" font-family="Times,serif" font-size="14.00">_tmp_var_5 = []</text>
</g>
<!-- 13&#45;&gt;14 -->
<g id="edge20" class="edge">
<title>13&#45;&gt;14</title>
<path fill="none" stroke="black" d="M927.81,-896.95C927.81,-888.98 927.81,-880.09 927.81,-871.6"/>
<polygon fill="black" stroke="black" points="931.31,-871.54 927.81,-861.54 924.31,-871.54 931.31,-871.54"/>
</g>
<!-- 15 -->
<g id="node13" class="node">
<title>15</title>
<ellipse fill="none" stroke="black" cx="927.81" cy="-744.79" rx="59.29" ry="26.74"/>
<text text-anchor="middle" x="927.81" y="-748.59" font-family="Times,serif" font-size="14.00">15</text>
<text text-anchor="middle" x="927.81" y="-733.59" font-family="Times,serif" font-size="14.00">for y in z:</text>
</g>
<!-- 14&#45;&gt;15 -->
<g id="edge19" class="edge">
<title>14&#45;&gt;15</title>
<path fill="none" stroke="black" d="M927.81,-807.21C927.81,-799.24 927.81,-790.35 927.81,-781.86"/>
<polygon fill="black" stroke="black" points="931.31,-781.79 927.81,-771.79 924.31,-781.8 931.31,-781.79"/>
</g>
<!-- 16 -->
<g id="node14" class="node">
<title>16</title>
<ellipse fill="none" stroke="black" cx="728.81" cy="-655.05" rx="112.36" ry="26.74"/>
<text text-anchor="middle" x="728.81" y="-658.85" font-family="Times,serif" font-size="14.00">16</text>
<text text-anchor="middle" x="728.81" y="-643.85" font-family="Times,serif" font-size="14.00">_tmp_var_7 = len(y)</text>
</g>
<!-- 15&#45;&gt;16 -->
<g id="edge16" class="edge">
<title>15&#45;&gt;16</title>
<path fill="none" stroke="black" d="M886.09,-725.4C858.31,-713.15 821.33,-696.84 790.2,-683.12"/>
<polygon fill="black" stroke="black" points="791.31,-679.78 780.75,-678.95 788.49,-686.19 791.31,-679.78"/>
</g>
<!-- 17 -->
<g id="node22" class="node">
<title>17</title>
<ellipse fill="none" stroke="black" cx="987.81" cy="-655.05" rx="90.52" ry="26.74"/>
<text text-anchor="middle" x="987.81" y="-658.85" font-family="Times,serif" font-size="14.00">17</text>
<text text-anchor="middle" x="987.81" y="-643.85" font-family="Times,serif" font-size="14.00">b = _tmp_var_5</text>
</g>
<!-- 15&#45;&gt;17 -->
<g id="edge18" class="edge">
<title>15&#45;&gt;17</title>
<path fill="none" stroke="black" d="M944.84,-718.88C950.94,-709.96 957.93,-699.74 964.47,-690.18"/>
<polygon fill="black" stroke="black" points="967.56,-691.86 970.32,-681.63 961.78,-687.91 967.56,-691.86"/>
</g>
<!-- 18 -->
<g id="node15" class="node">
<title>18</title>
<ellipse fill="none" stroke="black" cx="779.81" cy="-565.31" rx="103.48" ry="26.74"/>
<text text-anchor="middle" x="779.81" y="-569.11" font-family="Times,serif" font-size="14.00">18</text>
<text text-anchor="middle" x="779.81" y="-554.11" font-family="Times,serif" font-size="14.00">if _tmp_var_7 &gt; 1:</text>
</g>
<!-- 16&#45;&gt;18 -->
<g id="edge15" class="edge">
<title>16&#45;&gt;18</title>
<path fill="none" stroke="black" d="M743.84,-628.2C748.82,-619.63 754.44,-609.95 759.74,-600.84"/>
<polygon fill="black" stroke="black" points="762.89,-602.38 764.89,-591.98 756.84,-598.86 762.89,-602.38"/>
</g>
<!-- 18&#45;&gt;15 -->
<g id="edge14" class="edge">
<title>18&#45;&gt;15</title>
<path fill="none" stroke="black" d="M811.01,-590.94C823.73,-601.7 838.15,-614.89 849.81,-628.18 856.2,-635.46 885.06,-678.78 905.81,-710.26"/>
<polygon fill="black" stroke="black" points="903,-712.36 911.42,-718.78 908.85,-708.51 903,-712.36"/>
</g>
<!-- 20 -->
<g id="node16" class="node">
<title>20</title>
<ellipse fill="none" stroke="black" cx="943.81" cy="-475.57" rx="60.21" ry="26.74"/>
<text text-anchor="middle" x="943.81" y="-479.37" font-family="Times,serif" font-size="14.00">20</text>
<text text-anchor="middle" x="943.81" y="-464.37" font-family="Times,serif" font-size="14.00">for x in y:</text>
</g>
<!-- 18&#45;&gt;20 -->
<g id="edge13" class="edge">
<title>18&#45;&gt;20</title>
<path fill="none" stroke="black" d="M823.76,-540.8C846.46,-528.65 874.16,-513.84 897.23,-501.49"/>
<polygon fill="black" stroke="black" points="898.98,-504.52 906.14,-496.72 895.68,-498.35 898.98,-504.52"/>
</g>
<!-- 20&#45;&gt;15 -->
<g id="edge12" class="edge">
<title>20&#45;&gt;15</title>
<path fill="none" stroke="black" d="M999.7,-485.88C1030.57,-494.15 1066.48,-509.64 1085.81,-538.44 1098.74,-557.7 1097.46,-667.84 1087.81,-681.92 1066.97,-712.33 1028.87,-727.79 995.08,-735.66"/>
<polygon fill="black" stroke="black" points="994.27,-732.26 985.22,-737.77 995.74,-739.1 994.27,-732.26"/>
</g>
<!-- 21 -->
<g id="node17" class="node">
<title>21</title>
<ellipse fill="none" stroke="black" cx="804.81" cy="-385.83" rx="111.03" ry="26.74"/>
<text text-anchor="middle" x="804.81" y="-389.63" font-family="Times,serif" font-size="14.00">21</text>
<text text-anchor="middle" x="804.81" y="-374.63" font-family="Times,serif" font-size="14.00">_tmp_var_8 = x &gt; 2</text>
</g>
<!-- 20&#45;&gt;21 -->
<g id="edge11" class="edge">
<title>20&#45;&gt;21</title>
<path fill="none" stroke="black" d="M909.81,-453.11C892.38,-442.11 870.89,-428.54 851.9,-416.55"/>
<polygon fill="black" stroke="black" points="853.69,-413.55 843.37,-411.17 849.96,-419.47 853.69,-413.55"/>
</g>
<!-- 23 -->
<g id="node18" class="node">
<title>23</title>
<ellipse fill="none" stroke="black" cx="804.81" cy="-296.09" rx="111.03" ry="26.74"/>
<text text-anchor="middle" x="804.81" y="-299.89" font-family="Times,serif" font-size="14.00">23</text>
<text text-anchor="middle" x="804.81" y="-284.89" font-family="Times,serif" font-size="14.00">_tmp_var_9 = x &lt; 4</text>
</g>
<!-- 21&#45;&gt;23 -->
<g id="edge10" class="edge">
<title>21&#45;&gt;23</title>
<path fill="none" stroke="black" d="M804.81,-358.51C804.81,-350.54 804.81,-341.65 804.81,-333.16"/>
<polygon fill="black" stroke="black" points="808.31,-333.09 804.81,-323.09 801.31,-333.09 808.31,-333.09"/>
</g>
<!-- 24 -->
<g id="node19" class="node">
<title>24</title>
<ellipse fill="none" stroke="black" cx="804.81" cy="-206.35" rx="164.51" ry="26.74"/>
<text text-anchor="middle" x="804.81" y="-210.15" font-family="Times,serif" font-size="14.00">24</text>
<text text-anchor="middle" x="804.81" y="-195.15" font-family="Times,serif" font-size="14.00">if _tmp_var_8 and _tmp_var_9:</text>
</g>
<!-- 23&#45;&gt;24 -->
<g id="edge9" class="edge">
<title>23&#45;&gt;24</title>
<path fill="none" stroke="black" d="M804.81,-268.77C804.81,-260.8 804.81,-251.91 804.81,-243.42"/>
<polygon fill="black" stroke="black" points="808.31,-243.35 804.81,-233.35 801.31,-243.35 808.31,-243.35"/>
</g>
<!-- 24&#45;&gt;20 -->
<g id="edge8" class="edge">
<title>24&#45;&gt;20</title>
<path fill="none" stroke="black" d="M877.74,-230.54C895.89,-239.76 913.4,-252.32 924.81,-269.22 959.1,-320.05 956.02,-394.78 950.21,-438.68"/>
<polygon fill="black" stroke="black" points="946.74,-438.22 948.78,-448.62 953.67,-439.22 946.74,-438.22"/>
</g>
<!-- 26 -->
<g id="node20" class="node">
<title>26</title>
<ellipse fill="none" stroke="black" cx="833.81" cy="-116.61" rx="107.46" ry="26.74"/>
<text text-anchor="middle" x="833.81" y="-120.41" font-family="Times,serif" font-size="14.00">26</text>
<text text-anchor="middle" x="833.81" y="-105.41" font-family="Times,serif" font-size="14.00">_tmp_var_6 = 2 * x</text>
</g>
<!-- 24&#45;&gt;26 -->
<g id="edge7" class="edge">
<title>24&#45;&gt;26</title>
<path fill="none" stroke="black" d="M813.35,-179.5C816.07,-171.27 819.13,-162.02 822.04,-153.23"/>
<polygon fill="black" stroke="black" points="825.41,-154.17 825.23,-143.58 818.76,-151.98 825.41,-154.17"/>
</g>
<!-- 27 -->
<g id="node21" class="node">
<title>27</title>
<ellipse fill="none" stroke="black" cx="900.81" cy="-26.87" rx="281.36" ry="26.74"/>
<text text-anchor="middle" x="900.81" y="-30.67" font-family="Times,serif" font-size="14.00">27</text>
<text text-anchor="middle" x="900.81" y="-15.67" font-family="Times,serif" font-size="14.00">_tmp_unused_var_ = _tmp_var_5.append(_tmp_var_6)</text>
</g>
<!-- 26&#45;&gt;27 -->
<g id="edge6" class="edge">
<title>26&#45;&gt;27</title>
<path fill="none" stroke="black" d="M853.55,-89.76C860.24,-81 867.81,-71.08 874.9,-61.8"/>
<polygon fill="black" stroke="black" points="877.69,-63.91 880.98,-53.84 872.13,-59.66 877.69,-63.91"/>
</g>
<!-- 27&#45;&gt;20 -->
<g id="edge5" class="edge">
<title>27&#45;&gt;20</title>
<path fill="none" stroke="black" d="M925.79,-53.72C954.53,-86.29 997.81,-145.3 997.81,-205.35 997.81,-297.09 997.81,-297.09 997.81,-297.09 997.81,-348.46 976.85,-404.72 961.04,-439.83"/>
<polygon fill="black" stroke="black" points="957.75,-438.6 956.74,-449.15 964.11,-441.53 957.75,-438.6"/>
</g>
<!-- 29 -->
<g id="node23" class="node">
<title>29</title>
<ellipse fill="none" stroke="black" cx="988.81" cy="-565.31" rx="87.86" ry="26.74"/>
<text text-anchor="middle" x="988.81" y="-569.11" font-family="Times,serif" font-size="14.00">29</text>
<text text-anchor="middle" x="988.81" y="-554.11" font-family="Times,serif" font-size="14.00">del _tmp_var_5</text>
</g>
<!-- 17&#45;&gt;29 -->
<g id="edge17" class="edge">
<title>17&#45;&gt;29</title>
<path fill="none" stroke="black" d="M988.11,-627.73C988.2,-619.76 988.3,-610.87 988.4,-602.38"/>
<polygon fill="black" stroke="black" points="991.9,-602.35 988.51,-592.31 984.9,-602.27 991.9,-602.35"/>
</g>
</g>
</svg>
