<?xml version="1.0" encoding="UTF-8" standalone="no"?>
<!DOCTYPE svg PUBLIC "-//W3C//DTD SVG 1.1//EN"
 "http://www.w3.org/Graphics/SVG/1.1/DTD/svg11.dtd">
<!-- Generated by graphviz version 2.50.0 (20211204.2007)
 -->
<!-- Title: cluster_C:\Users\Layne Liu\PycharmProjects\cfg\py2flows\examples\12_listcomp.py Pages: 1 -->
<svg width="774pt" height="1139pt"
 viewBox="0.00 0.00 774.32 1138.62" xmlns="http://www.w3.org/2000/svg" xmlns:xlink="http://www.w3.org/1999/xlink">
<g id="graph0" class="graph" transform="scale(1 1) rotate(0) translate(4 1134.62)">
<title>cluster_C:\Users\Layne Liu\PycharmProjects\cfg\py2flows\examples\12_listcomp.py</title>
<polygon fill="white" stroke="transparent" points="-4,4 -4,-1134.62 770.32,-1134.62 770.32,4 -4,4"/>
<!-- 1 -->
<g id="node1" class="node">
<title>1</title>
<ellipse fill="none" stroke="black" cx="103.24" cy="-1103.75" rx="101.23" ry="26.74"/>
<text text-anchor="middle" x="103.24" y="-1107.55" font-family="Times New Roman,serif" font-size="14.00">1</text>
<text text-anchor="middle" x="103.24" y="-1092.55" font-family="Times New Roman,serif" font-size="14.00">z = [[1, 2, 3], [4, 5, 6]]</text>
</g>
<!-- 2 -->
<g id="node2" class="node">
<title>2</title>
<ellipse fill="none" stroke="black" cx="103.24" cy="-1014.01" rx="77.56" ry="26.74"/>
<text text-anchor="middle" x="103.24" y="-1017.81" font-family="Times New Roman,serif" font-size="14.00">2</text>
<text text-anchor="middle" x="103.24" y="-1002.81" font-family="Times New Roman,serif" font-size="14.00">_tmp_var_1 = []</text>
</g>
<!-- 1&#45;&gt;2 -->
<g id="edge21" class="edge">
<title>1&#45;&gt;2</title>
<path fill="none" stroke="black" d="M103.24,-1076.43C103.24,-1068.46 103.24,-1059.57 103.24,-1051.08"/>
<polygon fill="black" stroke="black" points="106.74,-1051.02 103.24,-1041.02 99.74,-1051.02 106.74,-1051.02"/>
</g>
<!-- 3 -->
<g id="node3" class="node">
<title>3</title>
<ellipse fill="none" stroke="black" cx="103.24" cy="-924.27" rx="77.56" ry="26.74"/>
<text text-anchor="middle" x="103.24" y="-928.07" font-family="Times New Roman,serif" font-size="14.00">3</text>
<text text-anchor="middle" x="103.24" y="-913.07" font-family="Times New Roman,serif" font-size="14.00">_tmp_var_3 = []</text>
</g>
<!-- 2&#45;&gt;3 -->
<g id="edge20" class="edge">
<title>2&#45;&gt;3</title>
<path fill="none" stroke="black" d="M103.24,-986.69C103.24,-978.72 103.24,-969.83 103.24,-961.34"/>
<polygon fill="black" stroke="black" points="106.74,-961.28 103.24,-951.28 99.74,-961.28 106.74,-961.28"/>
</g>
<!-- 4 -->
<g id="node4" class="node">
<title>4</title>
<ellipse fill="none" stroke="black" cx="103.24" cy="-834.53" rx="49.49" ry="26.74"/>
<text text-anchor="middle" x="103.24" y="-838.33" font-family="Times New Roman,serif" font-size="14.00">4</text>
<text text-anchor="middle" x="103.24" y="-823.33" font-family="Times New Roman,serif" font-size="14.00">for y in z:</text>
</g>
<!-- 3&#45;&gt;4 -->
<g id="edge19" class="edge">
<title>3&#45;&gt;4</title>
<path fill="none" stroke="black" d="M103.24,-896.95C103.24,-888.98 103.24,-880.09 103.24,-871.6"/>
<polygon fill="black" stroke="black" points="106.74,-871.54 103.24,-861.54 99.74,-871.54 106.74,-871.54"/>
</g>
<!-- 5 -->
<g id="node5" class="node">
<title>5</title>
<ellipse fill="none" stroke="black" cx="103.24" cy="-744.79" rx="103.48" ry="26.74"/>
<text text-anchor="middle" x="103.24" y="-748.59" font-family="Times New Roman,serif" font-size="14.00">5</text>
<text text-anchor="middle" x="103.24" y="-733.59" font-family="Times New Roman,serif" font-size="14.00">_tmp_var_3.append(y)</text>
</g>
<!-- 4&#45;&gt;5 -->
<g id="edge2" class="edge">
<title>4&#45;&gt;5</title>
<path fill="none" stroke="black" d="M97.02,-807.68C96.52,-799.63 96.37,-790.6 96.58,-781.98"/>
<polygon fill="black" stroke="black" points="100.09,-781.9 97.01,-771.76 93.09,-781.6 100.09,-781.9"/>
</g>
<!-- 6 -->
<g id="node6" class="node">
<title>6</title>
<ellipse fill="none" stroke="black" cx="344.24" cy="-744.79" rx="119.5" ry="26.74"/>
<text text-anchor="middle" x="344.24" y="-748.59" font-family="Times New Roman,serif" font-size="14.00">6</text>
<text text-anchor="middle" x="344.24" y="-733.59" font-family="Times New Roman,serif" font-size="14.00">_tmp_var_2 = _tmp_var_3</text>
</g>
<!-- 4&#45;&gt;6 -->
<g id="edge18" class="edge">
<title>4&#45;&gt;6</title>
<path fill="none" stroke="black" d="M143.58,-818.85C179.08,-805.92 231.58,-786.81 273.97,-771.37"/>
<polygon fill="black" stroke="black" points="275.2,-774.65 283.4,-767.94 272.81,-768.07 275.2,-774.65"/>
</g>
<!-- 5&#45;&gt;4 -->
<g id="edge1" class="edge">
<title>5&#45;&gt;4</title>
<path fill="none" stroke="black" d="M109.46,-771.76C109.96,-779.82 110.11,-788.85 109.89,-797.47"/>
<polygon fill="black" stroke="black" points="106.39,-797.54 109.45,-807.68 113.38,-797.84 106.39,-797.54"/>
</g>
<!-- 8 -->
<g id="node7" class="node">
<title>8</title>
<ellipse fill="none" stroke="black" cx="344.24" cy="-655.05" rx="93.18" ry="26.74"/>
<text text-anchor="middle" x="344.24" y="-658.85" font-family="Times New Roman,serif" font-size="14.00">8</text>
<text text-anchor="middle" x="344.24" y="-643.85" font-family="Times New Roman,serif" font-size="14.00">for x in _tmp_var_2:</text>
</g>
<!-- 6&#45;&gt;8 -->
<g id="edge17" class="edge">
<title>6&#45;&gt;8</title>
<path fill="none" stroke="black" d="M344.24,-717.47C344.24,-709.5 344.24,-700.61 344.24,-692.12"/>
<polygon fill="black" stroke="black" points="347.74,-692.05 344.24,-682.05 340.74,-692.05 347.74,-692.05"/>
</g>
<!-- 9 -->
<g id="node8" class="node">
<title>9</title>
<ellipse fill="none" stroke="black" cx="344.24" cy="-565.31" rx="103.48" ry="26.74"/>
<text text-anchor="middle" x="344.24" y="-569.11" font-family="Times New Roman,serif" font-size="14.00">9</text>
<text text-anchor="middle" x="344.24" y="-554.11" font-family="Times New Roman,serif" font-size="14.00">_tmp_var_1.append(x)</text>
</g>
<!-- 8&#45;&gt;9 -->
<g id="edge4" class="edge">
<title>8&#45;&gt;9</title>
<path fill="none" stroke="black" d="M338.02,-628.2C337.52,-620.15 337.37,-611.12 337.58,-602.5"/>
<polygon fill="black" stroke="black" points="341.09,-602.42 338.01,-592.28 334.09,-602.12 341.09,-602.42"/>
</g>
<!-- 10 -->
<g id="node9" class="node">
<title>10</title>
<ellipse fill="none" stroke="black" cx="541.24" cy="-565.31" rx="75.82" ry="26.74"/>
<text text-anchor="middle" x="541.24" y="-569.11" font-family="Times New Roman,serif" font-size="14.00">10</text>
<text text-anchor="middle" x="541.24" y="-554.11" font-family="Times New Roman,serif" font-size="14.00">a = _tmp_var_1</text>
</g>
<!-- 8&#45;&gt;10 -->
<g id="edge16" class="edge">
<title>8&#45;&gt;10</title>
<path fill="none" stroke="black" d="M393.44,-632.14C421.62,-619.59 457.05,-603.81 486.15,-590.84"/>
<polygon fill="black" stroke="black" points="487.65,-594.01 495.36,-586.74 484.8,-587.61 487.65,-594.01"/>
</g>
<!-- 9&#45;&gt;8 -->
<g id="edge3" class="edge">
<title>9&#45;&gt;8</title>
<path fill="none" stroke="black" d="M350.46,-592.28C350.96,-600.34 351.11,-609.37 350.89,-617.99"/>
<polygon fill="black" stroke="black" points="347.39,-618.06 350.45,-628.2 354.38,-618.36 347.39,-618.06"/>
</g>
<!-- 12 -->
<g id="node10" class="node">
<title>12</title>
<ellipse fill="none" stroke="black" cx="541.24" cy="-475.57" rx="77.56" ry="26.74"/>
<text text-anchor="middle" x="541.24" y="-479.37" font-family="Times New Roman,serif" font-size="14.00">12</text>
<text text-anchor="middle" x="541.24" y="-464.37" font-family="Times New Roman,serif" font-size="14.00">_tmp_var_4 = []</text>
</g>
<!-- 10&#45;&gt;12 -->
<g id="edge15" class="edge">
<title>10&#45;&gt;12</title>
<path fill="none" stroke="black" d="M541.24,-537.99C541.24,-530.02 541.24,-521.13 541.24,-512.64"/>
<polygon fill="black" stroke="black" points="544.74,-512.57 541.24,-502.57 537.74,-512.57 544.74,-512.57"/>
</g>
<!-- 13 -->
<g id="node11" class="node">
<title>13</title>
<ellipse fill="none" stroke="black" cx="541.24" cy="-385.83" rx="49.49" ry="26.74"/>
<text text-anchor="middle" x="541.24" y="-389.63" font-family="Times New Roman,serif" font-size="14.00">13</text>
<text text-anchor="middle" x="541.24" y="-374.63" font-family="Times New Roman,serif" font-size="14.00">for y in z:</text>
</g>
<!-- 12&#45;&gt;13 -->
<g id="edge14" class="edge">
<title>12&#45;&gt;13</title>
<path fill="none" stroke="black" d="M541.24,-448.25C541.24,-440.28 541.24,-431.39 541.24,-422.9"/>
<polygon fill="black" stroke="black" points="544.74,-422.83 541.24,-412.83 537.74,-422.83 544.74,-422.83"/>
</g>
<!-- 14 -->
<g id="node12" class="node">
<title>14</title>
<ellipse fill="none" stroke="black" cx="464.24" cy="-296.09" rx="60.21" ry="26.74"/>
<text text-anchor="middle" x="464.24" y="-299.89" font-family="Times New Roman,serif" font-size="14.00">14</text>
<text text-anchor="middle" x="464.24" y="-284.89" font-family="Times New Roman,serif" font-size="14.00">if len(y) &gt; 1:</text>
</g>
<!-- 13&#45;&gt;14 -->
<g id="edge12" class="edge">
<title>13&#45;&gt;14</title>
<path fill="none" stroke="black" d="M515.85,-362.69C506.39,-352.8 495.78,-340.95 486.6,-330.05"/>
<polygon fill="black" stroke="black" points="489.28,-327.8 480.21,-322.33 483.89,-332.26 489.28,-327.8"/>
</g>
<!-- 15 -->
<g id="node16" class="node">
<title>15</title>
<ellipse fill="none" stroke="black" cx="618.24" cy="-296.09" rx="76.24" ry="26.74"/>
<text text-anchor="middle" x="618.24" y="-299.89" font-family="Times New Roman,serif" font-size="14.00">15</text>
<text text-anchor="middle" x="618.24" y="-284.89" font-family="Times New Roman,serif" font-size="14.00">b = _tmp_var_4</text>
</g>
<!-- 13&#45;&gt;15 -->
<g id="edge13" class="edge">
<title>13&#45;&gt;15</title>
<path fill="none" stroke="black" d="M561.87,-361.32C570.39,-351.61 580.41,-340.19 589.62,-329.7"/>
<polygon fill="black" stroke="black" points="592.5,-331.72 596.47,-321.9 587.24,-327.1 592.5,-331.72"/>
</g>
<!-- 14&#45;&gt;13 -->
<g id="edge11" class="edge">
<title>14&#45;&gt;13</title>
<path fill="none" stroke="black" d="M490.6,-320.25C499.87,-329.99 510.13,-341.48 519.03,-352.06"/>
<polygon fill="black" stroke="black" points="516.46,-354.45 525.53,-359.92 521.86,-349.99 516.46,-354.45"/>
</g>
<!-- 17 -->
<g id="node13" class="node">
<title>17</title>
<ellipse fill="none" stroke="black" cx="593.24" cy="-206.35" rx="50.41" ry="26.74"/>
<text text-anchor="middle" x="593.24" y="-210.15" font-family="Times New Roman,serif" font-size="14.00">17</text>
<text text-anchor="middle" x="593.24" y="-195.15" font-family="Times New Roman,serif" font-size="14.00">for x in y:</text>
</g>
<!-- 14&#45;&gt;17 -->
<g id="edge10" class="edge">
<title>14&#45;&gt;17</title>
<path fill="none" stroke="black" d="M496.46,-273.18C513.98,-261.26 535.79,-246.43 554.26,-233.86"/>
<polygon fill="black" stroke="black" points="556.46,-236.6 562.76,-228.08 552.52,-230.81 556.46,-236.6"/>
</g>
<!-- 17&#45;&gt;13 -->
<g id="edge9" class="edge">
<title>17&#45;&gt;13</title>
<path fill="none" stroke="black" d="M636.78,-219.8C660.93,-229.18 688.91,-244.73 703.24,-269.22 715.3,-289.84 716.78,-303.29 703.24,-322.96 680.14,-356.51 636.22,-371.88 599.93,-378.91"/>
<polygon fill="black" stroke="black" points="599.15,-375.49 589.92,-380.68 600.37,-382.39 599.15,-375.49"/>
</g>
<!-- 18 -->
<g id="node14" class="node">
<title>18</title>
<ellipse fill="none" stroke="black" cx="593.24" cy="-116.61" rx="82.96" ry="26.74"/>
<text text-anchor="middle" x="593.24" y="-120.41" font-family="Times New Roman,serif" font-size="14.00">18</text>
<text text-anchor="middle" x="593.24" y="-105.41" font-family="Times New Roman,serif" font-size="14.00">if x &gt; 2 and x &lt; 4:</text>
</g>
<!-- 17&#45;&gt;18 -->
<g id="edge8" class="edge">
<title>17&#45;&gt;18</title>
<path fill="none" stroke="black" d="M587.02,-179.5C586.52,-171.45 586.37,-162.42 586.58,-153.8"/>
<polygon fill="black" stroke="black" points="590.09,-153.72 587.01,-143.58 583.09,-153.42 590.09,-153.72"/>
</g>
<!-- 18&#45;&gt;17 -->
<g id="edge7" class="edge">
<title>18&#45;&gt;17</title>
<path fill="none" stroke="black" d="M599.46,-143.58C599.96,-151.64 600.11,-160.67 599.89,-169.29"/>
<polygon fill="black" stroke="black" points="596.39,-169.36 599.45,-179.5 603.38,-169.66 596.39,-169.36"/>
</g>
<!-- 21 -->
<g id="node15" class="node">
<title>21</title>
<ellipse fill="none" stroke="black" cx="648.24" cy="-26.87" rx="118.17" ry="26.74"/>
<text text-anchor="middle" x="648.24" y="-30.67" font-family="Times New Roman,serif" font-size="14.00">21</text>
<text text-anchor="middle" x="648.24" y="-15.67" font-family="Times New Roman,serif" font-size="14.00">_tmp_var_4.append(2 * x)</text>
</g>
<!-- 18&#45;&gt;21 -->
<g id="edge6" class="edge">
<title>18&#45;&gt;21</title>
<path fill="none" stroke="black" d="M609.15,-90.23C614.63,-81.49 620.86,-71.54 626.72,-62.2"/>
<polygon fill="black" stroke="black" points="629.83,-63.83 632.17,-53.5 623.9,-60.11 629.83,-63.83"/>
</g>
<!-- 21&#45;&gt;17 -->
<g id="edge5" class="edge">
<title>21&#45;&gt;17</title>
<path fill="none" stroke="black" d="M667.84,-53.73C683.57,-77.88 700.69,-114.46 685.24,-143.48 675.76,-161.27 658.64,-174.87 641.71,-184.71"/>
<polygon fill="black" stroke="black" points="640.01,-181.65 632.92,-189.52 643.37,-187.79 640.01,-181.65"/>
</g>
</g>
</svg>
