<?xml version="1.0" encoding="UTF-8" standalone="no"?>
<!DOCTYPE svg PUBLIC "-//W3C//DTD SVG 1.1//EN"
 "http://www.w3.org/Graphics/SVG/1.1/DTD/svg11.dtd">
<!-- Generated by graphviz version 2.50.0 (20211204.2007)
 -->
<!-- Title: cluster_24_isolation.py Pages: 1 -->
<svg width="576pt" height="363pt"
 viewBox="0.00 0.00 576.20 362.96" xmlns="http://www.w3.org/2000/svg" xmlns:xlink="http://www.w3.org/1999/xlink">
<g id="graph0" class="graph" transform="scale(1 1) rotate(0) translate(4 358.96)">
<title>cluster_24_isolation.py</title>
<polygon fill="white" stroke="transparent" points="-4,4 -4,-358.96 572.2,-358.96 572.2,4 -4,4"/>
<g id="clust1" class="cluster">
<title>cluster_test</title>
<polygon fill="none" stroke="black" points="308.2,-8 308.2,-346.96 560.2,-346.96 560.2,-8 308.2,-8"/>
</g>
<!-- 1 -->
<g id="node1" class="node">
<title>1</title>
<ellipse fill="none" stroke="black" cx="149.2" cy="-312.09" rx="29.9" ry="26.74"/>
<text text-anchor="middle" x="149.2" y="-315.89" font-family="Times New Roman,serif" font-size="14.00">1</text>
<text text-anchor="middle" x="149.2" y="-300.89" font-family="Times New Roman,serif" font-size="14.00">pass</text>
</g>
<!-- 2 -->
<g id="node2" class="node">
<title>2</title>
<ellipse fill="none" stroke="black" cx="149.2" cy="-222.35" rx="49.49" ry="26.74"/>
<text text-anchor="middle" x="149.2" y="-226.15" font-family="Times New Roman,serif" font-size="14.00">2</text>
<text text-anchor="middle" x="149.2" y="-211.15" font-family="Times New Roman,serif" font-size="14.00">def test():</text>
</g>
<!-- 1&#45;&gt;2 -->
<g id="edge3" class="edge">
<title>1&#45;&gt;2</title>
<path fill="none" stroke="black" d="M149.2,-284.77C149.2,-276.8 149.2,-267.91 149.2,-259.42"/>
<polygon fill="black" stroke="black" points="152.7,-259.35 149.2,-249.35 145.7,-259.35 152.7,-259.35"/>
</g>
<!-- 9 -->
<g id="node3" class="node">
<title>9</title>
<ellipse fill="none" stroke="black" cx="149.2" cy="-132.61" rx="149.4" ry="26.74"/>
<text text-anchor="middle" x="149.2" y="-136.41" font-family="Times New Roman,serif" font-size="14.00">9</text>
<text text-anchor="middle" x="149.2" y="-121.41" font-family="Times New Roman,serif" font-size="14.00">print(&#39;no isolated entries and exits&#39;)</text>
</g>
<!-- 2&#45;&gt;9 -->
<g id="edge2" class="edge">
<title>2&#45;&gt;9</title>
<path fill="none" stroke="black" d="M149.2,-195.03C149.2,-187.06 149.2,-178.17 149.2,-169.68"/>
<polygon fill="black" stroke="black" points="152.7,-169.61 149.2,-159.61 145.7,-169.61 152.7,-169.61"/>
</g>
<!-- 10 -->
<g id="node4" class="node">
<title>10</title>
<ellipse fill="none" stroke="black" cx="149.2" cy="-42.87" rx="29.9" ry="26.74"/>
<text text-anchor="middle" x="149.2" y="-46.67" font-family="Times New Roman,serif" font-size="14.00">10</text>
<text text-anchor="middle" x="149.2" y="-31.67" font-family="Times New Roman,serif" font-size="14.00">pass</text>
</g>
<!-- 9&#45;&gt;10 -->
<g id="edge1" class="edge">
<title>9&#45;&gt;10</title>
<path fill="none" stroke="black" d="M149.2,-105.29C149.2,-97.32 149.2,-88.43 149.2,-79.94"/>
<polygon fill="black" stroke="black" points="152.7,-79.87 149.2,-69.87 145.7,-79.87 152.7,-79.87"/>
</g>
<!-- 3 -->
<g id="node5" class="node">
<title>3</title>
<ellipse fill="none" stroke="black" cx="463.2" cy="-312.09" rx="29.9" ry="26.74"/>
<text text-anchor="middle" x="463.2" y="-315.89" font-family="Times New Roman,serif" font-size="14.00">3</text>
<text text-anchor="middle" x="463.2" y="-300.89" font-family="Times New Roman,serif" font-size="14.00">pass</text>
</g>
<!-- 4 -->
<g id="node6" class="node">
<title>4</title>
<ellipse fill="none" stroke="black" cx="463.2" cy="-222.35" rx="60.62" ry="26.74"/>
<text text-anchor="middle" x="463.2" y="-226.15" font-family="Times New Roman,serif" font-size="14.00">4</text>
<text text-anchor="middle" x="463.2" y="-211.15" font-family="Times New Roman,serif" font-size="14.00">while i &lt;= n:</text>
</g>
<!-- 3&#45;&gt;4 -->
<g id="edge8" class="edge">
<title>3&#45;&gt;4</title>
<path fill="none" stroke="black" d="M463.2,-284.77C463.2,-276.8 463.2,-267.91 463.2,-259.42"/>
<polygon fill="black" stroke="black" points="466.7,-259.35 463.2,-249.35 459.7,-259.35 466.7,-259.35"/>
</g>
<!-- 5 -->
<g id="node7" class="node">
<title>5</title>
<ellipse fill="none" stroke="black" cx="346.2" cy="-132.61" rx="29.9" ry="26.74"/>
<text text-anchor="middle" x="346.2" y="-136.41" font-family="Times New Roman,serif" font-size="14.00">5</text>
<text text-anchor="middle" x="346.2" y="-121.41" font-family="Times New Roman,serif" font-size="14.00">pass</text>
</g>
<!-- 4&#45;&gt;5 -->
<g id="edge4" class="edge">
<title>4&#45;&gt;5</title>
<path fill="none" stroke="black" d="M433.07,-198.76C415.85,-185.84 394.29,-169.68 376.97,-156.68"/>
<polygon fill="black" stroke="black" points="378.94,-153.79 368.84,-150.59 374.74,-159.39 378.94,-153.79"/>
</g>
<!-- 6 -->
<g id="node8" class="node">
<title>6</title>
<ellipse fill="none" stroke="black" cx="463.2" cy="-132.61" rx="69.09" ry="26.74"/>
<text text-anchor="middle" x="463.2" y="-136.41" font-family="Times New Roman,serif" font-size="14.00">6</text>
<text text-anchor="middle" x="463.2" y="-121.41" font-family="Times New Roman,serif" font-size="14.00">sum = sum + i</text>
</g>
<!-- 4&#45;&gt;6 -->
<g id="edge7" class="edge">
<title>4&#45;&gt;6</title>
<path fill="none" stroke="black" d="M463.2,-195.03C463.2,-187.06 463.2,-178.17 463.2,-169.68"/>
<polygon fill="black" stroke="black" points="466.7,-169.61 463.2,-159.61 459.7,-169.61 466.7,-169.61"/>
</g>
<!-- 7 -->
<g id="node9" class="node">
<title>7</title>
<ellipse fill="none" stroke="black" cx="486.2" cy="-42.87" rx="43.27" ry="26.74"/>
<text text-anchor="middle" x="486.2" y="-46.67" font-family="Times New Roman,serif" font-size="14.00">7</text>
<text text-anchor="middle" x="486.2" y="-31.67" font-family="Times New Roman,serif" font-size="14.00">i = i + 1</text>
</g>
<!-- 6&#45;&gt;7 -->
<g id="edge6" class="edge">
<title>6&#45;&gt;7</title>
<path fill="none" stroke="black" d="M469.98,-105.76C472.15,-97.46 474.6,-88.12 476.92,-79.26"/>
<polygon fill="black" stroke="black" points="480.32,-80.1 479.47,-69.54 473.55,-78.32 480.32,-80.1"/>
</g>
<!-- 7&#45;&gt;4 -->
<g id="edge5" class="edge">
<title>7&#45;&gt;4</title>
<path fill="none" stroke="black" d="M511.66,-64.6C523.02,-75.5 535.17,-89.89 541.2,-105.74 549.69,-128.07 551.59,-137.97 541.2,-159.48 534.29,-173.78 522.29,-185.78 509.75,-195.3"/>
<polygon fill="black" stroke="black" points="507.59,-192.54 501.48,-201.19 511.66,-198.24 507.59,-192.54"/>
</g>
</g>
</svg>
