<?xml version="1.0" encoding="UTF-8" standalone="no"?>
<!DOCTYPE svg PUBLIC "-//W3C//DTD SVG 1.1//EN"
 "http://www.w3.org/Graphics/SVG/1.1/DTD/svg11.dtd">
<!-- Generated by graphviz version 2.50.0 (20211204.2007)
 -->
<!-- Title: cluster_24_isolation.py Pages: 1 -->
<svg width="498pt" height="273pt"
 viewBox="0.00 0.00 498.20 273.22" xmlns="http://www.w3.org/2000/svg" xmlns:xlink="http://www.w3.org/1999/xlink">
<g id="graph0" class="graph" transform="scale(1 1) rotate(0) translate(4 269.22)">
<title>cluster_24_isolation.py</title>
<polygon fill="white" stroke="transparent" points="-4,4 -4,-269.22 494.2,-269.22 494.2,4 -4,4"/>
<g id="clust1" class="cluster">
<title>cluster_test</title>
<polygon fill="none" stroke="black" points="308.2,-8 308.2,-257.22 482.2,-257.22 482.2,-8 308.2,-8"/>
</g>
<!-- 1 -->
<g id="node1" class="node">
<title>1</title>
<ellipse fill="none" stroke="black" cx="149.2" cy="-222.35" rx="49.49" ry="26.74"/>
<text text-anchor="middle" x="149.2" y="-226.15" font-family="Times New Roman,serif" font-size="14.00">1</text>
<text text-anchor="middle" x="149.2" y="-211.15" font-family="Times New Roman,serif" font-size="14.00">def test():</text>
</g>
<!-- 7 -->
<g id="node2" class="node">
<title>7</title>
<ellipse fill="none" stroke="black" cx="149.2" cy="-132.61" rx="149.4" ry="26.74"/>
<text text-anchor="middle" x="149.2" y="-136.41" font-family="Times New Roman,serif" font-size="14.00">7</text>
<text text-anchor="middle" x="149.2" y="-121.41" font-family="Times New Roman,serif" font-size="14.00">print(&#39;no isolated entries and exits&#39;)</text>
</g>
<!-- 1&#45;&gt;7 -->
<g id="edge1" class="edge">
<title>1&#45;&gt;7</title>
<path fill="none" stroke="black" d="M149.2,-195.03C149.2,-187.06 149.2,-178.17 149.2,-169.68"/>
<polygon fill="black" stroke="black" points="152.7,-169.61 149.2,-159.61 145.7,-169.61 152.7,-169.61"/>
</g>
<!-- 2 -->
<g id="node3" class="node">
<title>2</title>
<ellipse fill="none" stroke="black" cx="399.2" cy="-222.35" rx="60.62" ry="26.74"/>
<text text-anchor="middle" x="399.2" y="-226.15" font-family="Times New Roman,serif" font-size="14.00">2</text>
<text text-anchor="middle" x="399.2" y="-211.15" font-family="Times New Roman,serif" font-size="14.00">while i &lt;= n:</text>
</g>
<!-- 4 -->
<g id="node4" class="node">
<title>4</title>
<ellipse fill="none" stroke="black" cx="385.2" cy="-132.61" rx="69.09" ry="26.74"/>
<text text-anchor="middle" x="385.2" y="-136.41" font-family="Times New Roman,serif" font-size="14.00">4</text>
<text text-anchor="middle" x="385.2" y="-121.41" font-family="Times New Roman,serif" font-size="14.00">sum = sum + i</text>
</g>
<!-- 2&#45;&gt;4 -->
<g id="edge4" class="edge">
<title>2&#45;&gt;4</title>
<path fill="none" stroke="black" d="M395.07,-195.5C393.78,-187.36 392.32,-178.22 390.93,-169.51"/>
<polygon fill="black" stroke="black" points="394.38,-168.9 389.34,-159.58 387.46,-170.01 394.38,-168.9"/>
</g>
<!-- 5 -->
<g id="node5" class="node">
<title>5</title>
<ellipse fill="none" stroke="black" cx="408.2" cy="-42.87" rx="43.27" ry="26.74"/>
<text text-anchor="middle" x="408.2" y="-46.67" font-family="Times New Roman,serif" font-size="14.00">5</text>
<text text-anchor="middle" x="408.2" y="-31.67" font-family="Times New Roman,serif" font-size="14.00">i = i + 1</text>
</g>
<!-- 4&#45;&gt;5 -->
<g id="edge3" class="edge">
<title>4&#45;&gt;5</title>
<path fill="none" stroke="black" d="M391.98,-105.76C394.15,-97.46 396.6,-88.12 398.92,-79.26"/>
<polygon fill="black" stroke="black" points="402.32,-80.1 401.47,-69.54 395.55,-78.32 402.32,-80.1"/>
</g>
<!-- 5&#45;&gt;2 -->
<g id="edge2" class="edge">
<title>5&#45;&gt;2</title>
<path fill="none" stroke="black" d="M433.66,-64.6C445.02,-75.5 457.17,-89.89 463.2,-105.74 471.69,-128.07 472.53,-137.49 463.2,-159.48 457.91,-171.95 448.74,-183.14 438.97,-192.45"/>
<polygon fill="black" stroke="black" points="436.54,-189.92 431.43,-199.2 441.21,-195.14 436.54,-189.92"/>
</g>
</g>
</svg>
